<svg width="81" height="83" viewBox="0 0 81 83" fill="none" xmlns="http://www.w3.org/2000/svg">
<path fill-rule="evenodd" clip-rule="evenodd" d="M40.5 83C62.5914 83 80.5 65.0914 80.5 43C80.5 20.9086 62.5914 3 40.5 3C18.4086 3 0.5 20.9086 0.5 43C0.5 65.0914 18.4086 83 40.5 83ZM40.5 78C59.83 78 75.5 62.33 75.5 43C75.5 23.67 59.83 8 40.5 8C21.17 8 5.5 23.67 5.5 43C5.5 62.33 21.17 78 40.5 78Z" fill="#F4EAE7"/>
<path fill-rule="evenodd" clip-rule="evenodd" d="M53.4477 4.86049C39.5464 -0.0628695 23.4415 2.9199 12.1599 13.903C0.878239 24.8861 -2.53523 40.9053 2.01367 54.9336L6.08095 50.9739C3.20573 39.3095 6.41675 26.4714 15.6466 17.4857C24.8765 8.50009 37.7961 5.6344 49.3792 8.82131L53.4477 4.86049Z" fill="#E75425"/>
<g clip-path="url(#clip0_1807_1527)">
<path d="M50.0324 36.1531C45.4524 29.3961 35.6184 30.5981 31.2644 35.6281C29.0864 38.1051 28.2594 41.5581 28.5594 44.7111C28.8594 47.1891 29.7604 49.4411 31.0374 50.9421C34.4154 55.0721 40.2714 55.5221 44.1004 52.8951C49.5054 49.1401 49.1304 43.0611 46.2024 39.6811C40.9474 33.6751 31.9384 39.6061 35.3174 46.4381C36.1424 48.0881 38.0174 48.9901 39.7464 48.9901C42.1484 48.9901 44.0254 46.1381 42.8994 44.4111C41.7734 42.6091 39.8214 44.4111 40.6464 45.7611C41.3224 46.8131 39.8964 47.4141 39.2964 47.2641C37.7194 46.8881 36.9674 44.7111 37.4944 42.9101C37.9444 41.3331 39.5944 40.2821 41.1724 40.3571C43.3494 40.5071 45.7524 42.2341 45.5264 45.9871C45.0014 52.0691 37.0424 53.1951 33.8904 48.8401C28.9354 41.8581 34.7904 32.4741 43.7254 35.3271C48.3054 36.8271 51.6834 42.2341 49.5804 48.0151C48.7554 50.1921 48.3054 51.0171 48.2304 51.7691C47.8534 54.5461 56.6384 45.9131 50.0304 36.1521L50.0324 36.1531Z" fill="#E75425"/>
</g>
<defs>
<clipPath id="clip0_1807_1527">
<rect width="24" height="24" fill="white" transform="translate(28.5 31)"/>
</clipPath>
</defs>
</svg>
