<svg width="81" height="83" viewBox="0 0 81 83" fill="none" xmlns="http://www.w3.org/2000/svg">
<path fill-rule="evenodd" clip-rule="evenodd" d="M40.5 83C62.5914 83 80.5 65.0914 80.5 43C80.5 20.9086 62.5914 3 40.5 3C18.4086 3 0.5 20.9086 0.5 43C0.5 65.0914 18.4086 83 40.5 83ZM40.5 78C59.83 78 75.5 62.33 75.5 43C75.5 23.67 59.83 8 40.5 8C21.17 8 5.5 23.67 5.5 43C5.5 62.33 21.17 78 40.5 78Z" fill="#F4EAE7"/>
<path fill-rule="evenodd" clip-rule="evenodd" d="M67.9298 71.2592C67.9417 71.2476 67.9537 71.236 67.9656 71.2244C67.9775 71.2128 67.9895 71.2012 68.0014 71.1895L67.9298 71.2592ZM76.5874 26.2281C74.7204 22.0527 72.1002 18.1289 68.724 14.6609C53.3138 -1.16804 27.9895 -1.50757 12.1605 13.9026C-3.66848 29.3127 -4.00801 54.6371 11.4021 70.466C14.7784 73.934 18.6305 76.6585 22.7543 78.6367L26.6086 74.8844C22.3617 73.119 18.3951 70.4824 14.9837 66.9783C1.49983 53.128 1.79692 30.9692 15.6473 17.4853C29.4976 4.00143 51.6564 4.29852 65.1403 18.1489C68.5517 21.653 71.081 25.6889 72.7319 29.9816L76.5874 26.2281Z" fill="#E75425"/>
<g clip-path="url(#clip0_1807_1539)">
<path d="M50.0324 36.1531C45.4524 29.3961 35.6184 30.5981 31.2644 35.6281C29.0864 38.1051 28.2594 41.5581 28.5594 44.7111C28.8594 47.1891 29.7604 49.4411 31.0374 50.9421C34.4154 55.0721 40.2714 55.5221 44.1004 52.8951C49.5054 49.1401 49.1304 43.0611 46.2024 39.6811C40.9474 33.6751 31.9384 39.6061 35.3174 46.4381C36.1424 48.0881 38.0174 48.9901 39.7464 48.9901C42.1484 48.9901 44.0254 46.1381 42.8994 44.4111C41.7734 42.6091 39.8214 44.4111 40.6464 45.7611C41.3224 46.8131 39.8964 47.4141 39.2964 47.2641C37.7194 46.8881 36.9674 44.7111 37.4944 42.9101C37.9444 41.3331 39.5944 40.2821 41.1724 40.3571C43.3494 40.5071 45.7524 42.2341 45.5264 45.9871C45.0014 52.0691 37.0424 53.1951 33.8904 48.8401C28.9354 41.8581 34.7904 32.4741 43.7254 35.3271C48.3054 36.8271 51.6834 42.2341 49.5804 48.0151C48.7554 50.1921 48.3054 51.0171 48.2304 51.7691C47.8534 54.5461 56.6384 45.9131 50.0304 36.1521L50.0324 36.1531Z" fill="#E75425"/>
</g>
<defs>
<clipPath id="clip0_1807_1539">
<rect width="24" height="24" fill="white" transform="translate(28.5 31)"/>
</clipPath>
</defs>
</svg>
