<svg width="22" height="22" viewBox="0 0 22 22" fill="none" xmlns="http://www.w3.org/2000/svg">
<path d="M20.8848 21.3273C20.2836 20.8666 19.6333 20.4739 18.9456 20.1565L16.4873 19.0215C16.3657 19.368 16.0478 20.1435 15.4196 20.9233C15.1541 21.2529 14.8644 21.545 14.5532 21.7993H21.5007L20.8848 21.3273Z" fill="black"/>
<path d="M6.58114 20.9233C5.9529 20.1435 5.63502 19.368 5.51341 19.0215L3.05509 20.1565C2.36741 20.4739 1.71706 20.8666 1.1159 21.3273L0.5 21.7993H7.44747C7.13647 21.545 6.84663 21.2531 6.58114 20.9233Z" fill="black"/>
<path d="M15.0062 17.9447V17.8047C13.9219 18.7162 12.5244 19.2661 11.0009 19.2661C9.47731 19.2661 8.07984 18.7162 6.99577 17.8047V17.9447C6.99577 18.1841 6.85541 18.4034 6.63831 18.5036C6.63831 18.5036 7.58779 21.8005 11.001 21.8005C14.4141 21.8005 15.3636 18.5036 15.3636 18.5036C15.1464 18.4034 15.0062 18.1841 15.0062 17.9447Z" fill="black"/>
<path d="M11.0002 18.0369C13.7596 18.0369 16.0043 15.7912 16.0043 13.0307V10.8145H5.99609V13.0307C5.99609 15.7912 8.24099 18.0369 11.0002 18.0369Z" fill="black"/>
<path d="M4.6966 9.58115H17.3004C17.6403 9.58115 17.9157 9.30557 17.9157 8.96573C17.9157 8.62574 17.6403 8.35015 17.3004 8.35015H16.7836V7.71374C16.7836 5.72985 15.7806 3.97636 14.2554 2.93315V5.53021C14.2554 5.87021 13.98 6.14579 13.6401 6.14579C13.3005 6.14579 13.0249 5.87021 13.0249 5.53021V2.54172C13.0249 2.45984 13.0412 2.38165 13.0704 2.3102C12.6101 2.13299 12.1217 2.01298 11.6138 1.95898V6.28519C11.6138 6.62518 11.3382 6.90077 10.9985 6.90077C10.6587 6.90077 10.3833 6.62518 10.3833 6.28519V1.95898C9.87535 2.01282 9.38715 2.13299 8.92699 2.31003C8.95599 2.38165 8.97233 2.45968 8.97233 2.54172V5.53021C8.97233 5.87021 8.69691 6.14579 8.35707 6.14579C8.01724 6.14579 7.74181 5.87021 7.74181 5.53021V2.93283C6.21648 3.97604 5.21332 5.72985 5.21332 7.71374V8.35015H4.69644C4.35676 8.35015 4.08118 8.62574 4.08118 8.96573C4.08118 9.30557 4.35676 9.58115 4.6966 9.58115Z" fill="black"/>
<path d="M14.2592 2.54527C14.2592 2.20527 13.9838 1.92969 13.644 1.92969C13.3862 1.92969 13.1655 2.08863 13.0742 2.3139C13.495 2.47589 13.8923 2.68562 14.2592 2.93669V2.54527Z" fill="black"/>
<path d="M8.35989 1.92969C8.02005 1.92969 7.74463 2.20527 7.74463 2.54527V2.93637C8.11154 2.6853 8.5089 2.47557 8.92964 2.31358C8.83816 2.08863 8.61769 1.92969 8.35989 1.92969Z" fill="black"/>
<path d="M11.6165 1.96032V1.41636C11.6165 1.07637 11.3411 0.800781 11.0012 0.800781C10.6614 0.800781 10.386 1.07637 10.386 1.41636V1.96032C10.5882 1.93869 10.7934 1.92748 11.0012 1.92748C11.2091 1.92748 11.4143 1.93869 11.6165 1.96032Z" fill="black"/>
</svg>
