<svg width="21" height="22" viewBox="0 0 21 22" fill="none" xmlns="http://www.w3.org/2000/svg">
<path fill-rule="evenodd" clip-rule="evenodd" d="M3.10201 10.1496C3.10201 8.30052 4.54109 6.71966 6.38211 6.54678C6.51862 6.53399 6.64545 6.47071 6.73776 6.36934C6.83008 6.26797 6.88124 6.13579 6.88123 5.99868V5.2764C6.88109 4.44317 7.16859 3.63543 7.69515 2.98966C8.22171 2.3439 8.95505 1.8997 9.77126 1.73212C10.5875 1.56455 11.4365 1.68387 12.1749 2.06992C12.9133 2.45598 13.4958 3.0851 13.824 3.85098C13.8597 3.93339 13.915 4.00582 13.9851 4.06196C14.0552 4.11809 14.1379 4.15623 14.2261 4.17304C14.3144 4.18985 14.4053 4.18482 14.4912 4.1584C14.577 4.13198 14.6551 4.08496 14.7185 4.02144L14.7295 4.01041C14.8845 3.8545 15.0688 3.7307 15.2717 3.64611C15.4747 3.56152 15.6923 3.51781 15.9122 3.51746C16.132 3.51712 16.3498 3.56016 16.553 3.64411C16.7562 3.72806 16.9408 3.85128 17.0963 4.00671C17.2518 4.16214 17.3752 4.34672 17.4592 4.54988C17.5433 4.75304 17.5864 4.97079 17.5862 5.19065C17.5859 5.41051 17.5423 5.62816 17.4578 5.83114C17.3733 6.03412 17.2496 6.21843 17.0938 6.37353L16.7416 6.72626C16.6894 6.77831 16.6482 6.84032 16.6205 6.90861C16.5927 6.9769 16.579 7.05007 16.5801 7.12378C16.5812 7.19748 16.5971 7.27021 16.6269 7.33764C16.6567 7.40507 16.6997 7.46583 16.7534 7.5163C17.283 8.01198 17.6512 8.65556 17.81 9.36332C17.9689 10.0711 17.911 10.8103 17.6441 11.4847C17.3771 12.1592 16.9133 12.7377 16.3131 13.145C15.7128 13.5523 15.0039 13.7695 14.2786 13.7684H6.72119C5.76171 13.7674 4.84183 13.3858 4.16334 12.7074C3.48485 12.0289 3.10316 11.1091 3.10201 10.1496V10.1496ZM11.0503 14.8691H9.94961V16.7301L9.73288 16.8138C9.45501 16.9217 9.20264 17.0862 8.99187 17.297C8.78111 17.5077 8.61656 17.7601 8.50873 18.038L8.42502 18.2545H0.55043C0.478146 18.2545 0.406571 18.2688 0.339789 18.2964C0.273008 18.3241 0.212329 18.3646 0.161217 18.4157C0.110105 18.4669 0.0695607 18.5275 0.041899 18.5943C0.0142373 18.6611 0 18.7327 0 18.805C0 18.8772 0.0142373 18.9488 0.041899 19.0156C0.0695607 19.0824 0.110105 19.1431 0.161217 19.1942C0.212329 19.2453 0.273008 19.2858 0.339789 19.3135C0.406571 19.3411 0.478146 19.3554 0.55043 19.3554H8.42506L8.50881 19.5719C8.66366 19.9743 8.9368 20.3204 9.29226 20.5645C9.64771 20.8086 10.0688 20.9392 10.5 20.9392C10.9312 20.9392 11.3522 20.8086 11.7077 20.5645C12.0632 20.3204 12.3363 19.9743 12.4911 19.5719L12.5749 19.3554H20.4495C20.5955 19.3554 20.7355 19.2974 20.8387 19.1942C20.942 19.0909 21 18.9509 21 18.805C21 18.659 20.942 18.519 20.8387 18.4157C20.7355 18.3125 20.5955 18.2545 20.4495 18.2545H12.5749L12.4911 18.038C12.3833 17.7601 12.2187 17.5077 12.0079 17.2969C11.7972 17.0862 11.5448 16.9217 11.2669 16.8138L11.0503 16.7301L11.0503 14.8691Z" fill="black"/>
</svg>
