<svg width="21" height="22" viewBox="0 0 21 22" fill="none" xmlns="http://www.w3.org/2000/svg">
<g clip-path="url(#clip0_1835_2128)">
<path d="M17.593 9.75699L6.25426 21.033C6.14064 21.1442 5.99217 21.2012 5.84287 21.2012C5.72885 21.2012 5.61441 21.1679 5.51515 21.0999C5.2867 20.9436 5.19974 20.6458 5.30803 20.3919L8.53842 12.7593H3.97953C3.6998 12.7593 3.44346 12.6137 3.29375 12.3701C3.13625 12.1138 3.12394 11.7869 3.26094 11.5166L8.7558 0.702793C8.91412 0.389434 9.20697 0.201172 9.5392 0.201172H14.8782C15.1916 0.201172 15.4696 0.362363 15.6226 0.631836C15.7789 0.907461 15.7723 1.25117 15.6062 1.52844L11.5695 8.29848H16.9684C17.3211 8.29848 17.6365 8.51217 17.7723 8.84234C17.9031 9.16062 17.8326 9.51951 17.593 9.75699Z" fill="black"/>
</g>
<defs>
<clipPath id="clip0_1835_2128">
<rect width="21" height="21" fill="white" transform="translate(0 0.201172)"/>
</clipPath>
</defs>
</svg>
