<svg width="15" height="23" viewBox="0 0 15 23" fill="none" xmlns="http://www.w3.org/2000/svg">
<path d="M11.0755 14.2506V3.60214L7.49986 0.238281L3.93 3.60214V14.234L3.92443 14.2506L1.06738 22.4709C1.41268 22.6603 1.76354 22.8329 2.12555 22.9889L4.91577 14.8521H10.0841L12.8799 22.9999C13.2418 22.8441 13.5927 22.6658 13.9324 22.4709L11.0755 14.2506ZM9.88358 13.6603H5.12189V4.12003L7.49992 1.8756L9.88358 4.12003V13.6603Z" fill="#2C2F33"/>
<path d="M14.3576 6.28288H13.3085V5.51393H1.6905V6.28288H0.641357V4.46484H14.3576V6.28288Z" fill="#3B3E42"/>
<path d="M14.3576 9.13646H13.3085V8.3675H1.6905V9.13646H0.641357V7.31836H14.3576V9.13646Z" fill="#3B3E42"/>
<path d="M14.3574 11.992H13.3083V11.223H1.69026V11.992H0.641113V10.1738H14.3574V11.992Z" fill="#3B3E42"/>
</svg>
