<svg width="301" height="320" viewBox="0 0 301 320" fill="none" xmlns="http://www.w3.org/2000/svg">
<rect x="161" y="82" width="72" height="72" rx="5" fill="#E75425" fill-opacity="0.1"/>
<rect x="161" y="162" width="72" height="72" rx="5" fill="#E75425" fill-opacity="0.15"/>
<rect x="241" y="49" width="72" height="72" rx="5" fill="#E75425" fill-opacity="0.3"/>
<rect x="241" y="129" width="72" height="72" rx="5" fill="#E75425" fill-opacity="0.05"/>
<rect x="161" y="244" width="72" height="72" rx="5" fill="#E75425" fill-opacity="0.15"/>
<rect x="241" y="217" width="72" height="72" rx="5" fill="#E75425" fill-opacity="0.1"/>
<rect x="241" y="297" width="72" height="72" rx="5" fill="#E75425" fill-opacity="0.05"/>
<rect x="81" y="30" width="72" height="72" rx="5" fill="#E75425" fill-opacity="0.1"/>
<rect x="81" y="110" width="72" height="72" rx="5" fill="#E75425" fill-opacity="0.15"/>
<rect x="161" width="72" height="72" rx="5" fill="#E75425" fill-opacity="0.3"/>
<rect y="234" width="72" height="72" rx="5" fill="#E75425" fill-opacity="0.15"/>
<rect y="314" width="72" height="72" rx="5" fill="#E75425" fill-opacity="0.05"/>
<rect x="80" y="191" width="72" height="72" rx="5" fill="#E75425" fill-opacity="0.1"/>
<rect x="80" y="271" width="72" height="72" rx="5" fill="#E75425" fill-opacity="0.05"/>
</svg>
