<svg width="40" height="40" viewBox="0 0 40 40" fill="none" xmlns="http://www.w3.org/2000/svg">
<circle cx="20" cy="20" r="20" fill="white" fill-opacity="0.3"/>
<g clip-path="url(#clip0_1820_3527)">
<path fill-rule="evenodd" clip-rule="evenodd" d="M14.7157 18.6786C14.7157 17.3578 15.7436 16.2286 17.0587 16.1051C17.1562 16.096 17.2467 16.0508 17.3127 15.9784C17.3786 15.906 17.4152 15.8116 17.4152 15.7136V15.1977C17.4151 14.6025 17.6204 14.0256 17.9965 13.5643C18.3727 13.1031 18.8965 12.7858 19.4795 12.6661C20.0625 12.5464 20.6689 12.6316 21.1964 12.9074C21.7238 13.1831 22.1399 13.6325 22.3743 14.1796C22.3998 14.2384 22.4393 14.2902 22.4893 14.3303C22.5394 14.3703 22.5985 14.3976 22.6615 14.4096C22.7245 14.4216 22.7895 14.418 22.8508 14.3991C22.9121 14.3803 22.9679 14.3467 23.0132 14.3013L23.0211 14.2934C23.1318 14.1821 23.2634 14.0936 23.4084 14.0332C23.5533 13.9728 23.7088 13.9416 23.8658 13.9413C24.0229 13.9411 24.1784 13.9718 24.3236 14.0318C24.4687 14.0918 24.6006 14.1798 24.7117 14.2908C24.8227 14.4018 24.9108 14.5336 24.9709 14.6788C25.0309 14.8239 25.0617 14.9794 25.0616 15.1365C25.0614 15.2935 25.0302 15.449 24.9699 15.594C24.9095 15.7389 24.8212 15.8706 24.7099 15.9814L24.4583 16.2333C24.421 16.2705 24.3916 16.3148 24.3718 16.3636C24.352 16.4124 24.3422 16.4646 24.3429 16.5173C24.3437 16.5699 24.3551 16.6219 24.3763 16.67C24.3976 16.7182 24.4283 16.7616 24.4667 16.7976C24.845 17.1517 25.108 17.6114 25.2214 18.1169C25.3349 18.6225 25.2936 19.1505 25.1029 19.6322C24.9122 20.114 24.5809 20.5272 24.1522 20.8181C23.7235 21.109 23.2171 21.2642 22.699 21.2634H17.3008C16.6155 21.2627 15.9585 20.9901 15.4738 20.5055C14.9892 20.021 14.7165 19.3639 14.7157 18.6786V18.6786ZM20.3931 22.0497H19.6069V23.3789L19.4521 23.4387C19.2536 23.5158 19.0733 23.6333 18.9228 23.7838C18.7722 23.9344 18.6547 24.1146 18.5777 24.3131L18.5179 24.4678H12.8932C12.8415 24.4678 12.7904 24.478 12.7427 24.4977C12.695 24.5175 12.6517 24.5464 12.6152 24.583C12.5786 24.6195 12.5497 24.6628 12.5299 24.7105C12.5102 24.7582 12.5 24.8093 12.5 24.861C12.5 24.9126 12.5102 24.9637 12.5299 25.0114C12.5497 25.0591 12.5786 25.1025 12.6152 25.139C12.6517 25.1755 12.695 25.2044 12.7427 25.2242C12.7904 25.244 12.8415 25.2541 12.8932 25.2541H18.5179L18.5777 25.4088C18.6883 25.6962 18.8834 25.9434 19.1373 26.1178C19.3912 26.2921 19.692 26.3855 20 26.3855C20.308 26.3855 20.6087 26.2921 20.8626 26.1178C21.1165 25.9434 21.3116 25.6962 21.4222 25.4088L21.482 25.2541H27.1068C27.2111 25.2541 27.3111 25.2127 27.3848 25.139C27.4585 25.0652 27.5 24.9652 27.5 24.861C27.5 24.7567 27.4585 24.6567 27.3848 24.583C27.3111 24.5092 27.2111 24.4678 27.1068 24.4678H21.482L21.4222 24.3131C21.3452 24.1146 21.2277 23.9344 21.0771 23.7838C20.9265 23.6333 20.7463 23.5157 20.5478 23.4387L20.393 23.3789L20.3931 22.0497Z" fill="white"/>
</g>
<defs>
<clipPath id="clip0_1820_3527">
<rect width="15" height="15" fill="white" transform="translate(12.5 12)"/>
</clipPath>
</defs>
</svg>
