<svg width="40" height="40" viewBox="0 0 40 40" fill="none" xmlns="http://www.w3.org/2000/svg">
<circle cx="20" cy="20" r="20" fill="#F9D5C9"/>
<path d="M25.0666 19.8256L16.9674 27.8799C16.8863 27.9593 16.7802 28 16.6736 28C16.5921 28 16.5104 27.9763 16.4395 27.9276C16.2763 27.816 16.2142 27.6033 16.2916 27.422L18.599 21.9701H15.3426C15.1428 21.9701 14.9597 21.8661 14.8528 21.6921C14.7403 21.509 14.7315 21.2755 14.8293 21.0824L18.7542 13.3583C18.8673 13.1345 19.0765 13 19.3138 13H23.1274C23.3512 13 23.5499 13.1151 23.6591 13.3076C23.7708 13.5045 23.7661 13.75 23.6474 13.948L20.764 18.7838H24.6204C24.8723 18.7838 25.0976 18.9364 25.1946 19.1723C25.288 19.3996 25.2376 19.656 25.0666 19.8256Z" fill="#E75425"/>
</svg>
