<svg width="40" height="40" viewBox="0 0 40 40" fill="none" xmlns="http://www.w3.org/2000/svg">
<g clip-path="url(#clip0_1820_3611)">
<path d="M38.5812 15.2573C36.4853 6.93734 28.9493 0.777344 19.9813 0.777344C9.38125 0.777344 0.78125 9.37734 0.78125 19.9773C0.78125 28.9693 6.96525 36.4813 15.2613 38.5773C29.2787 42.3295 42.2853 29.0875 38.5812 15.2573Z" fill="#F9D5C9"/>
<path d="M23.477 22.2871V11.936L20.0012 8.66602L16.531 11.936V22.271L16.5256 22.2871L13.7483 30.2779C14.0839 30.462 14.425 30.6298 14.7769 30.7815L17.4892 22.8718H22.5132L25.231 30.7922C25.5828 30.6407 25.9239 30.4674 26.2541 30.2779L23.477 22.2871ZM22.3183 21.7133H17.6896V12.4394L20.0012 10.2576L22.3183 12.4394V21.7133Z" fill="#E75425"/>
<path d="M26.6673 14.5388H25.6475V13.7913H14.3538V14.5388H13.334V12.7715H26.6673V14.5388Z" fill="#E75425"/>
<path d="M26.6673 17.3162H25.6475V16.5687H14.3538V17.3162H13.334V15.5488H26.6673V17.3162Z" fill="#E75425"/>
<path d="M26.6673 20.0917H25.6475V19.3441H14.3538V20.0917H13.334V18.3242H26.6673V20.0917Z" fill="#E75425"/>
</g>
<defs>
<clipPath id="clip0_1820_3611">
<rect width="40" height="40" fill="white"/>
</clipPath>
</defs>
</svg>
