<svg width="28" height="28" viewBox="0 0 28 28" fill="none" xmlns="http://www.w3.org/2000/svg">
<g clip-path="url(#clip0_1769_960)">
<path d="M22.6882 8.064C20.6687 6.20317 18.053 4.9805 15.1643 4.71917L17.5 0H26.6782L22.6882 8.064ZM12.8287 4.72033L10.5 0H1.19934L5.21967 8.14917C7.24967 6.24167 9.89801 4.9875 12.8287 4.72033ZM24.5 17.5C24.5 23.2902 19.789 28 14 28C8.21101 28 3.50001 23.2902 3.50001 17.5C3.50001 11.7098 8.21101 7 14 7C19.789 7 24.5 11.7098 24.5 17.5ZM19.8333 15.75H15.6543L14.4923 11.634H13.5333L12.3702 15.75H8.16784V16.6215L11.3202 18.4625L10.0672 22.1667L10.78 22.7033L14.0152 20.2008L17.2375 22.6928L17.9783 22.176L16.632 18.5185L19.8333 16.6168V15.7512V15.75Z" fill="white"/>
</g>
<defs>
<clipPath id="clip0_1769_960">
<rect width="28" height="28" fill="white"/>
</clipPath>
</defs>
</svg>
