<svg width="29" height="28" viewBox="0 0 29 28" fill="none" xmlns="http://www.w3.org/2000/svg">
<g clip-path="url(#clip0_1769_885)">
<path d="M28.5 8.16667V28H0.5V8.16667C0.5 6.237 2.07033 4.66667 4 4.66667H11V3.5C11 1.57033 12.5703 0 14.5 0C16.4297 0 18 1.57033 18 3.5V4.66667H25C26.9297 4.66667 28.5 6.237 28.5 8.16667ZM13.3333 8.16667H15.6667V3.5C15.6667 2.856 15.1428 2.33333 14.5 2.33333C13.8572 2.33333 13.3333 2.856 13.3333 3.5V8.16667ZM11.5833 14.5833C11.5833 16.1922 12.8912 17.5 14.5 17.5C16.1088 17.5 17.4167 16.1922 17.4167 14.5833C17.4167 12.9745 16.1088 11.6667 14.5 11.6667C12.8912 11.6667 11.5833 12.9745 11.5833 14.5833ZM20.3333 22.1667C20.3333 20.237 18.763 18.6667 16.8333 18.6667H12.1667C10.237 18.6667 8.66667 20.237 8.66667 22.1667V24.5H11V22.1667C11 21.5227 11.5238 21 12.1667 21H16.8333C17.4762 21 18 21.5227 18 22.1667V24.5H20.3333V22.1667Z" fill="white"/>
</g>
<defs>
<clipPath id="clip0_1769_885">
<rect width="28" height="28" fill="white" transform="translate(0.5)"/>
</clipPath>
</defs>
</svg>
