<svg width="28" height="28" viewBox="0 0 28 28" fill="none" xmlns="http://www.w3.org/2000/svg">
<g clip-path="url(#clip0_1769_969)">
<path d="M22.1667 0H5.83333C2.61683 0 0 2.61683 0 5.83333V22.1667C0 25.3832 2.61683 28 5.83333 28H22.1667C25.3832 28 28 25.3832 28 22.1667V5.83333C28 2.61683 25.3832 0 22.1667 0ZM14 22.1667C13.034 22.1667 12.25 21.3827 12.25 20.4167C12.25 19.4507 13.034 18.6667 14 18.6667C14.966 18.6667 15.75 19.4507 15.75 20.4167C15.75 21.3827 14.966 22.1667 14 22.1667ZM16.2493 14.5693C15.6415 14.9042 15.1667 15.68 15.1667 16.3333C15.1667 16.9785 14.644 17.5 14 17.5C13.356 17.5 12.8333 16.9785 12.8333 16.3333C12.8333 14.8353 13.7748 13.2697 15.1235 12.5253C16.0137 12.0353 16.4733 11.0623 16.2948 10.0462C16.1338 9.128 15.3498 8.34517 14.4328 8.18417C13.7258 8.05933 13.0387 8.239 12.5008 8.69167C11.97 9.13617 11.6667 9.78833 11.6667 10.4802C11.6667 11.1242 11.144 11.6468 10.5 11.6468C9.856 11.6468 9.33333 11.1242 9.33333 10.4802C9.33333 9.09767 9.94117 7.7945 11.0005 6.9055C12.0598 6.0165 13.461 5.649 14.8353 5.887C16.7172 6.216 18.263 7.76067 18.5932 9.64367C18.9408 11.6258 17.9993 13.6045 16.2493 14.5693Z" fill="white"/>
</g>
<defs>
<clipPath id="clip0_1769_969">
<rect width="28" height="28" fill="white"/>
</clipPath>
</defs>
</svg>
